<?xml version="1.0" encoding="UTF-8" standalone="no"?>
<!-- Created with Inkscape (http://www.inkscape.org/) -->

<svg
   width="13.229167mm"
   height="13.229167mm"
   viewBox="0 0 13.229167 13.229167"
   version="1.1"
   id="svg1"
   inkscape:version="1.3.2 (091e20e, 2023-11-25, custom)"
   sodipodi:docname="btn_chart.svg"
   xmlns:inkscape="http://www.inkscape.org/namespaces/inkscape"
   xmlns:sodipodi="http://sodipodi.sourceforge.net/DTD/sodipodi-0.dtd"
   xmlns="http://www.w3.org/2000/svg"
   xmlns:svg="http://www.w3.org/2000/svg">
  <sodipodi:namedview
     id="namedview1"
     pagecolor="#ffffff"
     bordercolor="#000000"
     borderopacity="0.25"
     inkscape:showpageshadow="2"
     inkscape:pageopacity="0.0"
     inkscape:pagecheckerboard="0"
     inkscape:deskcolor="#d1d1d1"
     inkscape:document-units="mm"
     inkscape:zoom="0.69219276"
     inkscape:cx="23.114948"
     inkscape:cy="29.616028"
     inkscape:window-width="1920"
     inkscape:window-height="991"
     inkscape:window-x="-9"
     inkscape:window-y="-9"
     inkscape:window-maximized="1"
     inkscape:current-layer="layer1" />
  <defs
     id="defs1" />
  <g
     inkscape:label="Calque 1"
     inkscape:groupmode="layer"
     id="layer1"
     transform="translate(-99.012149,-140.55174)">
    <g
       inkscape:label="Calque 1"
       id="layer1-0"
       transform="matrix(2.4117144,0,0,2.4117144,-122.44407,-136.05189)">
      <rect
         style="fill:#a9a9ac;fill-opacity:1;stroke-width:11.9114;stroke-linejoin:round;stop-color:#000000"
         id="rect1403-88"
         width="5.4853787"
         height="5.4853787"
         x="91.825226"
         y="114.6917"
         ry="0.85465604" />
      <path
         inkscape:connector-curvature="0"
         d="m 94.574078,117.33911 v -1.33048 c 0,-0.0536 0.04169,-0.0989 0.09529,-0.0989 0.736703,0 1.334047,0.59736 1.334047,1.33406 0,0.0536 -0.04526,0.0953 -0.09887,0.0953 z m -1.619912,0.19057 c 0,-0.72241 0.536595,-1.32035 1.232801,-1.41564 0.05479,-0.008 0.101248,0.0363 0.101248,0.0917 v 1.41922 l 0.932046,0.93204 c 0.0399,0.0399 0.03692,0.10541 -0.0089,0.13758 -0.233458,0.16675 -0.519325,0.26443 -0.827823,0.26443 -0.789113,0 -1.429336,-0.63964 -1.429336,-1.42934 z m 3.135009,0.0953 c 0.05538,0 0.09887,0.0464 0.09172,0.10124 -0.04585,0.33292 -0.206063,0.62891 -0.440116,0.84748 -0.03573,0.0333 -0.09172,0.031 -0.126258,-0.005 l -0.945149,-0.94455 z"
         id="path4564"
         style="fill:#2d2d37;fill-opacity:1;stroke-width:0.00595556" />
    </g>
  </g>
</svg>
