<?xml version="1.0" encoding="UTF-8" standalone="no"?>
<!-- Created with Inkscape (http://www.inkscape.org/) -->

<svg
   width="13.229167mm"
   height="13.229167mm"
   viewBox="0 0 13.229167 13.229167"
   version="1.1"
   id="svg1"
   inkscape:version="1.3.2 (091e20e, 2023-11-25, custom)"
   sodipodi:docname="btn_table.svg"
   xmlns:inkscape="http://www.inkscape.org/namespaces/inkscape"
   xmlns:sodipodi="http://sodipodi.sourceforge.net/DTD/sodipodi-0.dtd"
   xmlns="http://www.w3.org/2000/svg"
   xmlns:svg="http://www.w3.org/2000/svg">
  <sodipodi:namedview
     id="namedview1"
     pagecolor="#ffffff"
     bordercolor="#000000"
     borderopacity="0.25"
     inkscape:showpageshadow="2"
     inkscape:pageopacity="0.0"
     inkscape:pagecheckerboard="0"
     inkscape:deskcolor="#d1d1d1"
     inkscape:document-units="mm"
     inkscape:zoom="0.69219276"
     inkscape:cx="20.22558"
     inkscape:cy="28.171343"
     inkscape:window-width="1920"
     inkscape:window-height="991"
     inkscape:window-x="-9"
     inkscape:window-y="-9"
     inkscape:window-maximized="1"
     inkscape:current-layer="layer1" />
  <defs
     id="defs1" />
  <g
     inkscape:label="Calque 1"
     inkscape:groupmode="layer"
     id="layer1"
     transform="translate(-99.747921,-141.02293)">
    <g
       id="g2"
       transform="matrix(2.4117144,0,0,2.4117144,-87.900983,-278.4585)">
      <rect
         style="fill:#a9a9ac;fill-opacity:1;stroke-width:11.9114;stroke-linejoin:round;stop-color:#000000"
         id="rect1403-8"
         width="5.4853787"
         height="5.4853787"
         x="77.807266"
         y="173.93495"
         ry="0.85465604" />
      <path
         d="m 79.248057,176.01439 a 0.31208119,0.31208119 0 1 0 0,-0.62416 0.31208119,0.31208119 0 1 0 0,0.62416 z m 0.832211,-0.52013 c -0.115081,0 -0.208053,0.093 -0.208053,0.20805 0,0.11507 0.09297,0.20805 0.208053,0.20805 h 1.872484 c 0.115076,0 0.208054,-0.093 0.208054,-0.20805 0,-0.11509 -0.09298,-0.20805 -0.208054,-0.20805 z m 0,1.04026 c -0.115081,0 -0.208053,0.093 -0.208053,0.20805 0,0.11509 0.09297,0.20805 0.208053,0.20805 h 1.872484 c 0.115076,0 0.208054,-0.093 0.208054,-0.20805 0,-0.11508 -0.09298,-0.20805 -0.208054,-0.20805 z m 0,1.04027 c -0.115081,0 -0.208053,0.093 -0.208053,0.20805 0,0.11508 0.09297,0.20805 0.208053,0.20805 h 1.872484 c 0.115076,0 0.208054,-0.093 0.208054,-0.20805 0,-0.11508 -0.09298,-0.20805 -0.208054,-0.20805 z m -0.832211,0.52013 a 0.31208119,0.31208119 0 1 0 0,-0.62416 0.31208119,0.31208119 0 1 0 0,0.62416 z m 0.312076,-1.35235 a 0.31207992,0.31207992 0 1 0 -0.624157,0 0.31207992,0.31207992 0 1 0 0.624157,0 z"
         id="path1472"
         inkscape:connector-curvature="0"
         style="fill:#2d2d37;fill-opacity:1;stroke-width:0.00650166" />
    </g>
  </g>
</svg>
