<?xml version="1.0" encoding="UTF-8" standalone="no"?>
<!-- Created with Inkscape (http://www.inkscape.org/) -->

<svg
   width="13.229166mm"
   height="13.229166mm"
   viewBox="0 0 13.229166 13.229166"
   version="1.1"
   id="svg1"
   inkscape:version="1.3.2 (091e20e, 2023-11-25, custom)"
   sodipodi:docname="btn_pen.svg"
   xmlns:inkscape="http://www.inkscape.org/namespaces/inkscape"
   xmlns:sodipodi="http://sodipodi.sourceforge.net/DTD/sodipodi-0.dtd"
   xmlns="http://www.w3.org/2000/svg"
   xmlns:svg="http://www.w3.org/2000/svg">
  <sodipodi:namedview
     id="namedview1"
     pagecolor="#ffffff"
     bordercolor="#000000"
     borderopacity="0.25"
     inkscape:showpageshadow="2"
     inkscape:pageopacity="0.0"
     inkscape:pagecheckerboard="0"
     inkscape:deskcolor="#d1d1d1"
     inkscape:document-units="mm"
     inkscape:zoom="0.69219276"
     inkscape:cx="39.006476"
     inkscape:cy="59.954398"
     inkscape:window-width="1920"
     inkscape:window-height="991"
     inkscape:window-x="-9"
     inkscape:window-y="-9"
     inkscape:window-maximized="1"
     inkscape:current-layer="layer1" />
  <defs
     id="defs1" />
  <g
     inkscape:label="Calque 1"
     inkscape:groupmode="layer"
     id="layer1"
     transform="translate(-94.985414,-132.82083)">
    <g
       inkscape:label="Calque 1"
       id="layer1-8"
       transform="matrix(1.4668165,0,0,1.4668165,-52.299449,-34.458845)">
      <rect
         style="fill:#0e7fc4;fill-opacity:1;stroke-width:0.679416;stroke-linecap:round;stroke-linejoin:round"
         id="rect899-3-07-3-2-2"
         width="9.0189648"
         height="9.0189648"
         x="100.41124"
         y="114.04267"
         ry="1.8419013" />
      <g
         style="clip-rule:evenodd;fill:#ffffff;fill-opacity:1;fill-rule:evenodd;stroke:#ffffff;stroke-width:0.402;stroke-linejoin:round;stroke-miterlimit:2;stroke-dasharray:none;stroke-opacity:1"
         id="g961-3-5-4"
         transform="matrix(0.19503405,0,0,0.19503405,101.70272,115.53484)">
        <path
           d="m 28.535,3.464 c 0,0 0,0 0,0 C 27.597,2.527 26.326,2 25,2 23.673,2 22.402,2.527 21.464,3.464 16.237,8.691 5.593,19.335 5.593,19.335 5.474,19.454 5.387,19.601 5.34,19.763 l -2.3,7.899 c -0.102,0.349 -0.006,0.725 0.25,0.984 0.256,0.258 0.631,0.357 0.981,0.258 l 7.957,-2.242 c 0.165,-0.047 0.315,-0.135 0.436,-0.256 0,0 10.644,-10.644 15.871,-15.87 C 29.473,9.598 30,8.326 30,7 30,5.674 29.473,4.402 28.535,3.464 Z m -8.864,4.622 4.243,4.242 -12.479,12.479 c 0,0.001 -5.971,1.683 -5.971,1.683 0,0 1.725,-5.922 1.725,-5.922 z m 5.657,2.828 -4.242,-4.243 1.792,-1.792 C 23.441,4.316 24.204,4 25,4 25.795,4 26.558,4.316 27.121,4.879 27.683,5.441 28,6.204 28,7 28,7.796 27.683,8.559 27.121,9.121 Z"
           id="path952-8-0-4"
           style="fill:#ffffff;fill-opacity:1;stroke:#ffffff;stroke-width:0.402;stroke-miterlimit:2;stroke-dasharray:none;stroke-opacity:1" />
      </g>
    </g>
  </g>
</svg>
